<svg width="44" height="44" viewBox="0 0 44 44" fill="none" xmlns="http://www.w3.org/2000/svg">
    <path d="M36.7799 34.2787C38.7546 31.9029 40.128 29.0864 40.7839 26.0675C41.4398 23.0486 41.359 19.9161 40.5483 16.9351C39.7376 13.954 38.2208 11.2121 36.1263 8.94118C34.0317 6.6703 31.4211 4.93729 28.5151 3.88875C25.6092 2.84022 22.4934 2.50701 19.4315 2.91731C16.3695 3.32761 13.4514 4.46935 10.924 6.24594C8.3966 8.02254 6.33428 10.3817 4.91149 13.1239C3.4887 15.8661 2.7473 18.9107 2.75001 22C2.75116 26.491 4.33376 30.8381 7.22013 34.2787L7.19263 34.3021C7.28888 34.4176 7.39888 34.5166 7.49788 34.6308C7.62163 34.7724 7.75501 34.9057 7.88288 35.0432C8.26605 35.4622 8.6648 35.8609 9.07913 36.2395C9.20747 36.3532 9.3358 36.4641 9.46413 36.5722C9.90413 36.9527 10.3579 37.3111 10.8254 37.6475C10.8859 37.6887 10.9409 37.7424 11.0014 37.785V37.7685C14.2217 40.0349 18.0635 41.2513 22.0014 41.2513C25.9393 41.2513 29.7811 40.0349 33.0014 37.7685V37.785C33.0619 37.7424 33.1155 37.6887 33.1774 37.6475C33.6449 37.3102 34.0986 36.9517 34.5386 36.5722C34.667 36.4632 34.7953 36.3523 34.9236 36.2395C35.3371 35.8609 35.7358 35.4622 36.1199 35.0432C36.2478 34.9057 36.3798 34.7724 36.5049 34.6308C36.6025 34.5166 36.7139 34.4176 36.8101 34.3007L36.7799 34.2787ZM22 11C23.2238 11 24.4201 11.3629 25.4376 12.0428C26.4551 12.7227 27.2482 13.689 27.7165 14.8196C28.1848 15.9503 28.3074 17.1944 28.0686 18.3946C27.8299 19.5949 27.2406 20.6974 26.3752 21.5627C25.5099 22.4281 24.4074 23.0174 23.2071 23.2561C22.0069 23.4949 20.7628 23.3723 19.6322 22.904C18.5015 22.4357 17.5352 21.6426 16.8553 20.6251C16.1754 19.6076 15.8125 18.4113 15.8125 17.1875C15.8125 15.5465 16.4644 13.9727 17.6248 12.8123C18.7852 11.6519 20.359 11 22 11ZM11.0096 34.2787C11.0335 32.4733 11.7672 30.7499 13.052 29.4813C14.3368 28.2127 16.0694 27.5009 17.875 27.5H26.125C27.9306 27.5009 29.6632 28.2127 30.948 29.4813C32.2328 30.7499 32.9665 32.4733 32.9904 34.2787C29.9748 36.9962 26.0594 38.5001 22 38.5001C17.9407 38.5001 14.0252 36.9962 11.0096 34.2787Z" fill="black"/>
</svg>
