<svg width="25" height="25" viewBox="0 0 25 25" fill="none" xmlns="http://www.w3.org/2000/svg">
    <path d="M3.125 2.73438C3.125 1.225 4.35 0 5.85938 0H16.15C16.875 0 17.5703 0.2875 18.0828 0.801563L22.6359 5.35469C23.15 5.86719 23.4375 6.5625 23.4375 7.2875V22.2656C23.4375 22.9908 23.1494 23.6863 22.6366 24.1991C22.1238 24.7119 21.4283 25 20.7031 25H5.85938C5.13417 25 4.43867 24.7119 3.92588 24.1991C3.41309 23.6863 3.125 22.9908 3.125 22.2656V2.73438ZM5.85938 2.34375C5.75577 2.34375 5.65642 2.38491 5.58316 2.45816C5.50991 2.53142 5.46875 2.63077 5.46875 2.73438V22.2656C5.46875 22.4812 5.64375 22.6562 5.85938 22.6562H20.7031C20.8067 22.6562 20.9061 22.6151 20.9793 22.5418C21.0526 22.4686 21.0938 22.3692 21.0938 22.2656V9.375H16.7969C16.0717 9.375 15.3762 9.08691 14.8634 8.57412C14.3506 8.06133 14.0625 7.36583 14.0625 6.64062V2.34375H5.85938ZM16.4062 2.44063V6.64062C16.4062 6.85625 16.5813 7.03125 16.7969 7.03125H20.9969L20.9797 7.01094L16.4266 2.45781L16.4062 2.44063Z" fill="black"/>
</svg>
