<svg width="20" height="20" viewBox="0 0 20 20" fill="none" xmlns="http://www.w3.org/2000/svg">
    <path d="M9.9999 19.1C15.0257 19.1 19.0999 15.0258 19.0999 10C19.0999 4.97421 15.0257 0.9 9.9999 0.9C4.97411 0.9 0.899902 4.97421 0.899902 10C0.899902 15.0258 4.97411 19.1 9.9999 19.1Z" stroke="#5C5C5C" stroke-width="0.2"/>
    <path d="M10 10.7929L7.73162 8.14645C7.56425 7.95118 7.29289 7.95118 7.12553 8.14645C6.95816 8.34171 6.95816 8.65829 7.12553 8.85355L9.69695 11.8536C9.86432 12.0488 10.1357 12.0488 10.303 11.8536L12.8745 8.85355C13.0418 8.65829 13.0418 8.34171 12.8745 8.14645C12.7071 7.95118 12.4358 7.95118 12.2684 8.14645L10 10.7929Z" fill="#565656"/>
</svg>
