<svg width="40" height="40" viewBox="0 0 40 40" fill="none" xmlns="http://www.w3.org/2000/svg">
    <path d="M11.6666 35C10.75 35 9.96552 34.6739 9.3133 34.0217C8.66108 33.3694 8.33441 32.5844 8.3333 31.6667V10C7.86108 10 7.46552 9.84 7.14663 9.52C6.82774 9.2 6.66774 8.80444 6.66663 8.33333C6.66552 7.86222 6.82552 7.46667 7.14663 7.14667C7.46774 6.82667 7.8633 6.66667 8.3333 6.66667H15C15 6.19444 15.16 5.79889 15.48 5.48C15.8 5.16111 16.1955 5.00111 16.6666 5H23.3333C23.8055 5 24.2016 5.16 24.5216 5.48C24.8416 5.8 25.0011 6.19556 25 6.66667H31.6666C32.1389 6.66667 32.535 6.82667 32.855 7.14667C33.175 7.46667 33.3344 7.86222 33.3333 8.33333C33.3322 8.80444 33.1722 9.20056 32.8533 9.52167C32.5344 9.84278 32.1389 10.0022 31.6666 10V31.6667C31.6666 32.5833 31.3405 33.3683 30.6883 34.0217C30.0361 34.675 29.2511 35.0011 28.3333 35H11.6666ZM28.3333 10H11.6666V31.6667H28.3333V10ZM16.6666 28.3333C17.1389 28.3333 17.535 28.1733 17.855 27.8533C18.175 27.5333 18.3344 27.1378 18.3333 26.6667V15C18.3333 14.5278 18.1733 14.1322 17.8533 13.8133C17.5333 13.4944 17.1377 13.3344 16.6666 13.3333C16.1955 13.3322 15.8 13.4922 15.48 13.8133C15.16 14.1344 15 14.53 15 15V26.6667C15 27.1389 15.16 27.535 15.48 27.855C15.8 28.175 16.1955 28.3344 16.6666 28.3333ZM23.3333 28.3333C23.8055 28.3333 24.2016 28.1733 24.5216 27.8533C24.8416 27.5333 25.0011 27.1378 25 26.6667V15C25 14.5278 24.84 14.1322 24.52 13.8133C24.2 13.4944 23.8044 13.3344 23.3333 13.3333C22.8622 13.3322 22.4666 13.4922 22.1466 13.8133C21.8266 14.1344 21.6666 14.53 21.6666 15V26.6667C21.6666 27.1389 21.8266 27.535 22.1466 27.855C22.4666 28.175 22.8622 28.3344 23.3333 28.3333Z" fill="black"/>
</svg>
